<svg id="visual" viewBox="0 0 900 600" width="900" height="600" xmlns="http://www.w3.org/2000/svg" xmlns:xlink="http://www.w3.org/1999/xlink" version="1.1"><g stroke-width="1" stroke-linejoin="bevel"><path d="M393 273L629 276L364 0Z" fill="#9b96bc" stroke="#9b96bc"></path><path d="M629 276L677 0L364 0Z" fill="#9691b9" stroke="#9691b9"></path><path d="M900 248L900 0L677 0Z" fill="#a49fc2" stroke="#a49fc2"></path><path d="M629 276L900 248L677 0Z" fill="#9691b9" stroke="#9691b9"></path><path d="M393 273L692 600L629 276Z" fill="#b1adca" stroke="#b1adca"></path><path d="M629 276L692 600L900 248Z" fill="#9b96bc" stroke="#9b96bc"></path><path d="M364 0L0 0L393 273Z" fill="#a8a3c4" stroke="#a8a3c4"></path><path d="M393 273L282 600L692 600Z" fill="#b6b2cd" stroke="#b6b2cd"></path><path d="M0 383L282 600L393 273Z" fill="#a49fc2" stroke="#a49fc2"></path><path d="M0 0L0 383L393 273Z" fill="#a49fc2" stroke="#a49fc2"></path><path d="M692 600L900 600L900 248Z" fill="#9691b9" stroke="#9691b9"></path><path d="M0 383L0 600L282 600Z" fill="#b1adca" stroke="#b1adca"></path></g></svg>